<?xml version="1.0" standalone="no"?>
<!DOCTYPE svg PUBLIC "-//W3C//DTD SVG 20010904//EN"
 "http://www.w3.org/TR/2001/REC-SVG-20010904/DTD/svg10.dtd">
<svg version="1.0" xmlns="http://www.w3.org/2000/svg"
 width="192.000000pt" height="192.000000pt" viewBox="0 0 192.000000 192.000000"
 preserveAspectRatio="xMidYMid meet">
<metadata>
Created by potrace 1.14, written by Peter Selinger 2001-2017
</metadata>
<g transform="translate(0.000000,192.000000) scale(0.100000,-0.100000)"
fill="#000000" stroke="none">
<path d="M817 1910 c-300 -47 -559 -232 -707 -504 -39 -72 -87 -214 -97 -287
-13 -90 -7 -298 11 -369 9 -36 18 -72 20 -81 13 -50 74 -174 121 -243 136
-205 351 -350 598 -405 77 -18 238 -23 322 -12 420 59 746 372 821 791 18 102
11 292 -15 391 -92 355 -354 612 -716 704 -73 19 -279 27 -358 15z"/>
</g>
</svg>
